<?xml version="1.0" standalone="no"?>
<!DOCTYPE svg PUBLIC "-//W3C//DTD SVG 20010904//EN"
 "http://www.w3.org/TR/2001/REC-SVG-20010904/DTD/svg10.dtd">
<svg version="1.0" xmlns="http://www.w3.org/2000/svg"
 width="500.000000pt" height="500.000000pt" viewBox="0 0 500.000000 500.000000"
 preserveAspectRatio="xMidYMid meet">
<metadata>
Created by potrace 1.14, written by Peter Selinger 2001-2017
</metadata>
<g transform="translate(0.000000,500.000000) scale(0.100000,-0.100000)"
fill="#000000" stroke="none">
<path d="M2185 4248 l0 -753 -165 -6 c-91 -3 -454 -7 -808 -8 -510 -1 -643 -4
-640 -13 4 -10 178 -14 809 -18 l804 -5 0 -94 c0 -87 -1 -94 -22 -102 -15 -5
-21 -14 -18 -29 3 -18 -8 -25 -37 -21 -9 1 -4 -27 7 -36 4 -4 5 -3 1 4 -3 6
-2 14 3 17 5 4 8 -2 7 -11 -2 -10 -8 -18 -14 -18 -6 0 -17 -6 -23 -12 -7 -7
-18 -13 -24 -13 -7 0 -20 -9 -30 -20 -10 -11 -20 -18 -23 -16 -2 3 -27 -11
-54 -31 -28 -19 -47 -29 -43 -21 5 7 -2 3 -13 -9 -12 -12 -30 -24 -42 -28 -11
-3 -20 -10 -20 -14 0 -4 -7 -16 -16 -27 -8 -10 -12 -12 -8 -4 5 11 1 10 -13
-3 -16 -14 -22 -15 -25 -5 -3 7 -16 14 -29 15 -13 0 -49 8 -79 17 -30 9 -72
16 -93 16 -43 0 -126 -18 -143 -31 -6 -5 -50 -8 -97 -7 -83 2 -88 0 -116 -26
-39 -38 -51 -90 -58 -264 -5 -139 -7 -150 -36 -203 -38 -71 -33 -119 16 -149
57 -35 120 -25 212 33 47 31 54 32 155 33 59 0 113 5 121 10 8 4 23 10 34 12
37 7 40 8 72 24 22 11 34 13 42 5 6 -6 11 -7 11 -3 0 5 8 2 17 -5 14 -12 16
-12 9 1 -5 8 6 1 23 -17 17 -17 40 -34 51 -38 12 -4 17 -11 13 -18 -4 -7 1 -6
11 2 14 12 17 12 14 1 -2 -7 7 -19 20 -25 12 -7 35 -23 49 -36 14 -13 22 -17
18 -9 -6 10 -1 8 13 -4 12 -10 19 -23 16 -27 -3 -5 7 -9 21 -9 15 0 24 -4 20
-10 -5 -8 13 -14 36 -12 3 1 6 -6 6 -13 0 -10 -4 -12 -12 -5 -8 7 -12 5 -12
-5 0 -7 3 -14 6 -13 29 3 39 -4 36 -22 -3 -15 3 -24 18 -29 20 -7 22 -15 22
-85 l1 -76 -81 -1 c-44 0 -89 -2 -100 -4 -11 -3 -326 -5 -700 -5 -374 -1 -692
-4 -707 -7 -16 -3 -28 -9 -28 -14 0 -5 353 -10 808 -11 l807 -3 0 -965 0 -965
1408 -3 1407 -2 0 2500 0 2500 -1408 0 -1407 0 0 -752z m407 -725 c22 -20 24
-66 2 -87 -18 -19 -153 -23 -185 -6 -24 13 -26 66 -2 92 22 25 157 26 185 1z
m2010 0 c23 -20 24 -80 1 -105 -20 -23 -80 -24 -105 -1 -23 20 -24 80 -1 105
20 23 80 24 105 1z m-1654 -728 l-3 -136 65 71 65 72 50 -4 49 -3 -63 -67
c-41 -44 -60 -72 -55 -80 4 -7 34 -48 66 -90 32 -42 58 -79 58 -82 0 -3 -22
-6 -49 -6 -50 0 -50 0 -96 65 -41 56 -49 63 -66 55 -15 -9 -19 -22 -19 -65 l0
-55 -45 0 -45 0 0 230 0 230 46 0 46 0 -4 -135z m-1312 104 c24 -6 46 -15 49
-19 2 -4 -1 -22 -8 -39 -10 -28 -16 -32 -37 -26 -98 23 -130 15 -130 -31 0
-18 14 -30 71 -60 82 -44 109 -78 109 -142 0 -35 -6 -49 -28 -72 -49 -48 -144
-62 -225 -31 -24 9 -27 16 -27 54 l0 44 53 -18 c89 -31 143 -19 135 31 -2 18
-21 34 -76 65 -98 54 -122 94 -101 168 20 73 106 103 215 76z m-306 -221 c0
-199 -3 -228 -20 -266 -22 -49 -69 -75 -128 -70 -35 3 -37 5 -40 44 -3 39 -2
41 25 37 15 -2 37 2 48 11 19 13 20 28 23 240 l3 226 45 0 44 0 0 -222z m770
72 c25 -80 48 -151 51 -158 2 -7 28 59 57 148 l53 160 65 0 64 0 0 -215 0
-215 -46 0 -46 0 4 165 c1 91 2 165 1 165 -1 0 -26 -74 -55 -165 l-52 -166
-45 3 -44 3 -48 155 -48 155 0 -157 -1 -158 -42 0 -43 0 3 215 3 216 62 -3 62
-3 45 -145z m593 46 c65 -27 71 -43 75 -192 l4 -134 -35 0 c-27 0 -37 5 -42
20 -8 25 -17 25 -39 1 -23 -25 -79 -35 -122 -21 -39 13 -64 52 -64 100 0 65
36 92 143 105 45 6 57 11 57 25 0 39 -57 50 -123 24 -11 -4 -21 5 -32 25 -15
30 -15 32 7 40 63 24 126 26 171 7z m763 -11 c37 -24 55 -59 61 -119 l6 -56
-107 0 c-96 0 -106 -2 -106 -18 0 -48 69 -71 143 -48 l47 14 0 -34 c0 -44 -26
-58 -110 -58 -77 0 -121 20 -150 67 -58 94 -26 222 65 264 36 16 117 10 151
-12z m344 -20 c0 -45 0 -45 -35 -45 -25 0 -44 -8 -60 -25 -23 -22 -25 -31 -25
-125 l0 -100 -45 0 -45 0 0 165 0 165 35 0 c29 0 36 -4 41 -26 l7 -25 26 24
c29 27 46 35 79 36 20 1 22 -4 22 -44z m788 33 c8 -8 12 -45 12 -100 0 -85 -1
-89 -25 -100 -19 -8 -31 -8 -50 0 -24 11 -25 15 -25 100 0 95 7 112 50 112 14
0 31 -5 38 -12z m12 -768 c27 -27 27 -83 -2 -110 -47 -43 -118 -10 -118 55 0
44 29 75 70 75 17 0 39 -9 50 -20z m-2004 -30 c17 -15 19 -71 2 -88 -7 -7 -44
-12 -98 -12 -96 0 -110 7 -110 56 0 52 29 67 118 61 40 -3 80 -11 88 -17z m-6
-295 c62 -59 64 -150 5 -209 -58 -58 -155 -54 -212 8 -29 32 -33 42 -33 93 1
63 21 106 41 86 8 -8 8 -17 0 -31 -6 -11 -11 -39 -11 -62 0 -33 6 -48 29 -71
16 -16 39 -29 50 -29 29 0 26 12 -9 32 -39 22 -57 60 -44 96 6 17 16 26 27 24
13 -2 17 4 17 27 0 26 -4 30 -32 33 l-33 3 35 18 c53 27 132 19 170 -18z"/>
<path d="M2580 2600 c-24 -24 -25 -34 -4 -54 33 -34 94 -5 94 45 0 27 -3 29
-35 29 -22 0 -43 -8 -55 -20z"/>
<path d="M3327 2722 c-34 -38 -22 -52 43 -52 52 0 60 3 60 18 0 46 -72 69
-103 34z"/>
<path d="M2490 1695 c0 -8 7 -15 15 -15 27 0 65 -47 65 -79 0 -41 -9 -61 -26
-54 -10 4 -14 -3 -14 -26 0 -27 4 -31 26 -31 18 0 25 5 23 18 -1 9 3 30 9 45
7 16 12 35 12 44 0 33 -33 82 -65 97 -41 20 -45 20 -45 1z"/>
<path d="M490 3100 c0 -193 4 -300 10 -300 6 0 10 107 10 300 0 193 -4 300
-10 300 -6 0 -10 -107 -10 -300z"/>
<path d="M490 2315 c0 -170 4 -265 10 -265 6 0 10 95 10 265 0 170 -4 265 -10
265 -6 0 -10 -95 -10 -265z"/>
</g>
</svg>
